<?xml version="1.0" encoding="UTF-8" standalone="no"?>
<!-- Created with Inkscape (http://www.inkscape.org/) -->

<svg
   width="15.986166"
   height="13.937605"
   viewBox="0 0 15.986166 13.937605"
   version="1.1"
   id="svg5"
   xmlns="http://www.w3.org/2000/svg"
   xmlns:svg="http://www.w3.org/2000/svg">
  <defs
     id="defs2">
    <linearGradient
       id="linearGradient1557">
      <stop
         style="stop-color:#000000;stop-opacity:1;"
         offset="0"
         id="stop1555" />
    </linearGradient>
    <linearGradient
       id="linearGradient1515">
      <stop
         style="stop-color:#000000;stop-opacity:1;"
         offset="0"
         id="stop1513" />
    </linearGradient>
  </defs>
  <g
     id="layer2"
     transform="translate(-503.59813,-376.57405)"
     style="display:inline">
    <path
       style="fill:#4d4d4d;stroke:#000000;stroke-width:0.968238;stroke-linecap:round;stroke-linejoin:round;stroke-miterlimit:3.6;stroke-dasharray:none;stroke-opacity:1;paint-order:markers stroke fill"
       id="rect2292"
       width="13.100368"
       height="12.969367"
       x="505.04102"
       y="377.05817"
       d="m 505.17202,377.05817 h 12.83967 a 0.12969367,0.12969367 45 0 1 0.12969,0.12969 v 12.70867 a 0.13100368,0.13100368 135 0 1 -0.131,0.131 h -12.83967 a 0.12969367,0.12969367 45 0 1 -0.12969,-0.12969 v -12.70867 a 0.13100368,0.13100368 135 0 1 0.131,-0.131 z" />
  </g>
  <g
     id="layer3"
     transform="translate(-503.59813,-376.57405)"
     style="display:inline">
    <rect
       style="fill:#f9f9f9;stroke:#000000;stroke-width:0.5;stroke-linejoin:round;stroke-miterlimit:4;stroke-dasharray:none;stroke-opacity:1;paint-order:markers stroke fill"
       id="rect3145"
       width="12.587636"
       height="9.7392254"
       x="505.22879"
       y="378.69324" />
    <rect
       style="fill:#b3b3b3;stroke:#000000;stroke-width:0.914821;stroke-linejoin:round;stroke-miterlimit:4;stroke-dasharray:none;stroke-opacity:1;paint-order:markers stroke fill"
       id="rect3521"
       width="12.13765"
       height="9.6602993"
       x="505.50229"
       y="378.7327" />
  </g>
  <g
     id="layer4"
     transform="translate(-503.59813,-376.57405)"
     style="display:none">
    <rect
       style="fill:#ffffff;stroke:#000000;stroke-width:0.48112;stroke-linejoin:round;stroke-miterlimit:4;stroke-dasharray:none;stroke-opacity:1;paint-order:markers stroke fill"
       id="rect3546"
       width="5.613049"
       height="5.7217393"
       x="505.98987"
       y="380.47073" />
    <rect
       style="fill:#ffffff;stroke:#000000;stroke-width:0.48112;stroke-linejoin:round;stroke-miterlimit:4;stroke-dasharray:none;stroke-opacity:1;paint-order:markers stroke fill"
       id="rect3546-3"
       width="5.613049"
       height="5.7217393"
       x="511.60291"
       y="380.47073" />
  </g>
  <g
     id="g6885"
     transform="translate(-503.59813,-376.57405)"
     style="display:inline">
    <rect
       style="fill:#ffffff;stroke:#000000;stroke-width:0.48112;stroke-linejoin:round;stroke-miterlimit:4;stroke-dasharray:none;stroke-opacity:1;paint-order:markers stroke fill"
       id="rect6881"
       width="5.613049"
       height="5.7217393"
       x="505.98987"
       y="380.47073" />
    <rect
       style="fill:#ffffff;stroke:#000000;stroke-width:1.281;stroke-linejoin:round;stroke-miterlimit:4;stroke-dasharray:none;stroke-opacity:1;paint-order:markers stroke fill"
       id="rect6883"
       width="5.613049"
       height="5.7217393"
       x="513.02667"
       y="379.61661" />
  </g>
  <g
     id="layer5"
     style="display:none">
    <g
       id="g6552"
       transform="matrix(0.51642973,0.09742668,-0.09938536,0.50625197,10.722972,6.1021217)">
      <path
         style="fill:#ffffff;stroke:#ffffff;stroke-width:5.06485;stroke-linecap:round;stroke-linejoin:round;stroke-miterlimit:4;stroke-dasharray:none;stroke-opacity:1;paint-order:markers stroke fill"
         id="path4519-6"
         d="M 15.873672,11.805284 13.475811,11.090811 11.527862,12.661066 11.466386,10.159781 9.3710351,8.7924067 11.730902,7.9609999 12.383853,5.545661 13.903807,7.5331086 16.402703,7.4077215 14.98222,9.4674384 Z"
         transform="matrix(1.2014597,0,0,1.1964914,-10.667546,-5.3443269)" />
      <path
         style="fill:#000000;stroke:#000000;stroke-width:1.9;stroke-linecap:round;stroke-linejoin:miter;stroke-miterlimit:3;stroke-dasharray:none;stroke-opacity:1;paint-order:markers stroke fill"
         id="path4519"
         d="M 7.854152,8.3212268 5.4562912,7.6067543 3.508342,9.1770093 3.446866,6.6757241 1.3515153,5.3083497 3.7113818,4.4769429 4.3643331,2.0616041 5.8842868,4.0490516 8.3831836,3.9236645 6.9627001,5.9833814 Z" />
    </g>
  </g>
  <g
     id="layer6">
    <g
       id="g7642"
       transform="matrix(0.28287439,0,0,0.27038238,9.9970898,3.5256829)">
      <path
         d="m 12.402967,0.48959074 a 0.5,0.5 0 0 1 0.708,0 l 3,2.99999996 a 0.5,0.5 0 0 1 0,0.708 L 6.1109669,14.197591 a 0.5,0.5 0 0 1 -0.168,0.11 l -5.00000015,2 a 0.5,0.5 0 0 1 -0.65,-0.65 l 2.00000015,-5 a 0.5,0.5 0 0 1 0.11,-0.168 z m -0.939,2.35399996 2.293,2.293 1.293,-1.293 -2.293,-2.293 z m 1.586,3 -2.293,-2.293 -6.5000001,6.5000003 v 0.293 h 0.5 a 0.5,0.5 0 0 1 0.5,0.5 v 0.5 h 0.5 a 0.5,0.5 0 0 1 0.5,0.5 v 0.5 h 0.293 z m -9.7610001,5.1750003 -0.106,0.106 -1.5280002,3.821 3.8210002,-1.528 0.106,-0.106 a 0.5,0.5 0 0 1 -0.325,-0.468 v -0.5 h -0.5 a 0.5,0.5 0 0 1 -0.5,-0.5 v -0.5 h -0.5 a 0.5,0.5 0 0 1 -0.468,-0.325 z"
         id="path6989"
         style="fill:#000000;stroke:none;stroke-opacity:1" />
      <path
         style="fill:#cccccc;stroke:none;stroke-width:0.0364764;stroke-linecap:round;stroke-linejoin:round;stroke-miterlimit:4;stroke-dasharray:none;stroke-opacity:1;paint-order:stroke fill markers"
         d="m 1.6860961,14.890219 c 0.4120474,-1.046468 1.5166841,-3.780814 1.5377101,-3.806348 0.042415,-0.05151 0.058587,-0.04508 0.1210301,0.04813 0.1053857,0.157297 0.2503997,0.212647 0.588848,0.224756 l 0.3031292,0.01084 0.010141,0.319448 c 0.011368,0.358102 0.05176,0.454145 0.2473662,0.588176 0.088272,0.06048 0.1381191,0.06978 0.4225732,0.07881 l 0.3224958,0.01024 v 0.276086 c 0,0.236965 0.01,0.296042 0.070563,0.416932 0.03881,0.07747 0.1092484,0.166474 0.1565302,0.197797 0.095619,0.06334 0.10227,0.0794 0.050537,0.121999 -0.025533,0.02103 -2.7598798,1.125663 -3.8063482,1.53771 -0.026809,0.01056 -0.035132,0.0022 -0.024576,-0.02458 z"
         id="path7423" />
      <path
         style="fill:#cccccc;stroke:none;stroke-width:0.0364764;stroke-linecap:round;stroke-linejoin:round;stroke-miterlimit:4;stroke-dasharray:none;stroke-opacity:1;paint-order:stroke fill markers"
         d="m 6.2638619,12.037782 c -0.00119,-0.55326 -0.1538796,-0.704755 -0.7103336,-0.704755 h -0.285664 v -0.285664 c 0,-0.556454 -0.1514949,-0.709148 -0.7047548,-0.710334 l -0.2918682,-6.25e-4 v -0.14954 -0.149541 L 7.5103551,6.798303 10.749469,3.5592825 11.895455,4.7055301 13.04144,5.8517776 9.8024105,9.0907138 6.5633809,12.32965 H 6.413934 6.2644872 Z"
         id="path7462" />
      <path
         style="fill:#cccccc;stroke:none;stroke-width:0.0364764;stroke-linecap:round;stroke-linejoin:round;stroke-miterlimit:4;stroke-dasharray:none;stroke-opacity:1;paint-order:stroke fill markers"
         d="m 12.621359,3.9792161 -1.146064,-1.146327 0.640836,-0.6403616 0.640836,-0.6403616 1.145959,1.1459587 1.145958,1.1459586 -0.64073,0.6407299 -0.64073,0.64073 z"
         id="path7501" />
    </g>
  </g>
</svg>
