<?xml version="1.0" encoding="UTF-8" standalone="no"?>
<!-- Created with Inkscape (http://www.inkscape.org/) -->

<svg
   width="15.986166"
   height="13.937605"
   viewBox="0 0 15.986166 13.937605"
   version="1.1"
   id="svg5"
   inkscape:version="1.1.2 (0a00cf5339, 2022-02-04)"
   sodipodi:docname="bootstrapgrid-column-insert.svg"
   xmlns:inkscape="http://www.inkscape.org/namespaces/inkscape"
   xmlns:sodipodi="http://sodipodi.sourceforge.net/DTD/sodipodi-0.dtd"
   xmlns="http://www.w3.org/2000/svg"
   xmlns:svg="http://www.w3.org/2000/svg">
  <sodipodi:namedview
     id="namedview7"
     pagecolor="#ffffff"
     bordercolor="#666666"
     borderopacity="1.0"
     inkscape:pageshadow="2"
     inkscape:pageopacity="0.0"
     inkscape:pagecheckerboard="0"
     inkscape:document-units="px"
     showgrid="false"
     inkscape:snap-page="false"
     inkscape:zoom="35.118597"
     inkscape:cx="7.9160339"
     inkscape:cy="6.9905983"
     inkscape:window-width="1551"
     inkscape:window-height="1082"
     inkscape:window-x="26"
     inkscape:window-y="23"
     inkscape:window-maximized="0"
     inkscape:current-layer="layer8"
     fit-margin-top="0"
     fit-margin-left="0"
     fit-margin-right="0"
     fit-margin-bottom="0" />
  <defs
     id="defs2">
    <inkscape:path-effect
       effect="fillet_chamfer"
       id="path-effect2374"
       is_visible="true"
       lpeversion="1"
       satellites_param="F,1,0,1,0,0.01,0,1 @ F,1,0,1,0,0.01,0,1 @ F,1,0,1,0,0.01,0,1 @ F,1,0,1,0,0.01,0,1"
       unit="px"
       method="auto"
       mode="F"
       radius="1"
       chamfer_steps="1"
       flexible="true"
       use_knot_distance="true"
       apply_no_radius="true"
       apply_with_radius="true"
       only_selected="false"
       hide_knots="false" />
    <linearGradient
       id="linearGradient1557"
       inkscape:swatch="solid">
      <stop
         style="stop-color:#000000;stop-opacity:1;"
         offset="0"
         id="stop1555" />
    </linearGradient>
    <linearGradient
       id="linearGradient1515"
       inkscape:swatch="solid">
      <stop
         style="stop-color:#000000;stop-opacity:1;"
         offset="0"
         id="stop1513" />
    </linearGradient>
  </defs>
  <g
     inkscape:groupmode="layer"
     id="layer2"
     inkscape:label="container"
     transform="translate(-503.59813,-376.57405)"
     style="display:inline"
     sodipodi:insensitive="true">
    <path
       style="fill:#4d4d4d;stroke:#000000;stroke-width:0.968238;stroke-linecap:round;stroke-linejoin:round;stroke-miterlimit:3.6;stroke-dasharray:none;stroke-opacity:1;paint-order:markers stroke fill"
       id="rect2292"
       width="13.100368"
       height="12.969367"
       x="505.04102"
       y="377.05817"
       inkscape:path-effect="#path-effect2374"
       d="m 505.17202,377.05817 h 12.83967 a 0.12969367,0.12969367 45 0 1 0.12969,0.12969 v 12.70867 a 0.13100368,0.13100368 135 0 1 -0.131,0.131 h -12.83967 a 0.12969367,0.12969367 45 0 1 -0.12969,-0.12969 v -12.70867 a 0.13100368,0.13100368 135 0 1 0.131,-0.131 z"
       sodipodi:type="rect" />
  </g>
  <g
     inkscape:groupmode="layer"
     id="layer3"
     inkscape:label="row"
     transform="translate(-503.59813,-376.57405)"
     style="display:inline"
     sodipodi:insensitive="true">
    <rect
       style="fill:#f9f9f9;stroke:#000000;stroke-width:0.5;stroke-linejoin:round;stroke-miterlimit:4;stroke-dasharray:none;stroke-opacity:1;paint-order:markers stroke fill"
       id="rect3145"
       width="12.587636"
       height="9.7392254"
       x="505.22879"
       y="378.69324" />
    <rect
       style="fill:#b3b3b3;stroke:#000000;stroke-width:0.914821;stroke-linejoin:round;stroke-miterlimit:4;stroke-dasharray:none;stroke-opacity:1;paint-order:markers stroke fill"
       id="rect3521"
       width="12.13765"
       height="9.6602993"
       x="505.50229"
       y="378.7327" />
  </g>
  <g
     inkscape:groupmode="layer"
     id="layer4"
     inkscape:label="column"
     sodipodi:insensitive="true"
     transform="translate(-503.59813,-376.57405)"
     style="display:none">
    <rect
       style="fill:#ffffff;stroke:#000000;stroke-width:0.48112;stroke-linejoin:round;stroke-miterlimit:4;stroke-dasharray:none;stroke-opacity:1;paint-order:markers stroke fill"
       id="rect3546"
       width="5.613049"
       height="5.7217393"
       x="505.98987"
       y="380.47073" />
    <rect
       style="fill:#ffffff;stroke:#000000;stroke-width:0.48112;stroke-linejoin:round;stroke-miterlimit:4;stroke-dasharray:none;stroke-opacity:1;paint-order:markers stroke fill"
       id="rect3546-3"
       width="5.613049"
       height="5.7217393"
       x="511.60291"
       y="380.47073" />
  </g>
  <g
     inkscape:groupmode="layer"
     id="g6885"
     inkscape:label="column new"
     transform="translate(-503.59813,-376.57405)"
     style="display:inline"
     sodipodi:insensitive="true">
    <rect
       style="fill:#ffffff;stroke:#000000;stroke-width:0.48112;stroke-linejoin:round;stroke-miterlimit:4;stroke-dasharray:none;stroke-opacity:1;paint-order:markers stroke fill"
       id="rect6881"
       width="5.613049"
       height="5.7217393"
       x="505.98987"
       y="380.47073" />
    <rect
       style="fill:#ffffff;stroke:#000000;stroke-width:1.281;stroke-linejoin:round;stroke-miterlimit:4;stroke-dasharray:none;stroke-opacity:1;paint-order:markers stroke fill"
       id="rect6883"
       width="5.613049"
       height="5.7217393"
       x="513.02667"
       y="379.61661" />
  </g>
  <g
     inkscape:groupmode="layer"
     id="layer5"
     inkscape:label="flair"
     style="display:none"
     sodipodi:insensitive="true">
    <g
       id="g6552"
       transform="matrix(0.51642973,0.09742668,-0.09938536,0.50625197,10.722972,6.1021217)">
      <path
         sodipodi:type="star"
         style="fill:#ffffff;stroke:#ffffff;stroke-width:5.06485;stroke-linecap:round;stroke-linejoin:round;stroke-miterlimit:4;stroke-dasharray:none;stroke-opacity:1;paint-order:markers stroke fill"
         id="path4519-6"
         inkscape:flatsided="false"
         sodipodi:sides="5"
         sodipodi:cx="13.111825"
         sodipodi:cy="9.2424278"
         sodipodi:r1="3.7677617"
         sodipodi:r2="1.8838809"
         sodipodi:arg1="0.74804428"
         sodipodi:arg2="1.3763628"
         inkscape:rounded="0"
         inkscape:randomized="0"
         inkscape:transform-center-x="0.27027623"
         inkscape:transform-center-y="-0.1663888"
         d="M 15.873672,11.805284 13.475811,11.090811 11.527862,12.661066 11.466386,10.159781 9.3710351,8.7924067 11.730902,7.9609999 12.383853,5.545661 13.903807,7.5331086 16.402703,7.4077215 14.98222,9.4674384 Z"
         transform="matrix(1.2014597,0,0,1.1964914,-10.667546,-5.3443269)" />
      <path
         sodipodi:type="star"
         style="fill:#000000;stroke:#000000;stroke-width:1.9;stroke-linecap:round;stroke-linejoin:miter;stroke-miterlimit:3;stroke-dasharray:none;stroke-opacity:1;paint-order:markers stroke fill"
         id="path4519"
         inkscape:flatsided="false"
         sodipodi:sides="5"
         sodipodi:cx="5.0923052"
         sodipodi:cy="5.7583709"
         sodipodi:r1="3.7677617"
         sodipodi:r2="1.8838809"
         sodipodi:arg1="0.74804428"
         sodipodi:arg2="1.3763628"
         inkscape:rounded="0"
         inkscape:randomized="0"
         d="M 7.854152,8.3212268 5.4562912,7.6067543 3.508342,9.1770093 3.446866,6.6757241 1.3515153,5.3083497 3.7113818,4.4769429 4.3643331,2.0616041 5.8842868,4.0490516 8.3831836,3.9236645 6.9627001,5.9833814 Z"
         inkscape:transform-center-x="0.22495576"
         inkscape:transform-center-y="-0.13906419" />
    </g>
  </g>
  <g
     inkscape:groupmode="layer"
     id="layer6"
     inkscape:label="edit"
     style="display:none"
     sodipodi:insensitive="true">
    <g
       id="g7642"
       transform="matrix(0.28287439,0,0,0.27038238,9.9970898,3.5256829)">
      <path
         d="m 12.402967,0.48959074 a 0.5,0.5 0 0 1 0.708,0 l 3,2.99999996 a 0.5,0.5 0 0 1 0,0.708 L 6.1109669,14.197591 a 0.5,0.5 0 0 1 -0.168,0.11 l -5.00000015,2 a 0.5,0.5 0 0 1 -0.65,-0.65 l 2.00000015,-5 a 0.5,0.5 0 0 1 0.11,-0.168 z m -0.939,2.35399996 2.293,2.293 1.293,-1.293 -2.293,-2.293 z m 1.586,3 -2.293,-2.293 -6.5000001,6.5000003 v 0.293 h 0.5 a 0.5,0.5 0 0 1 0.5,0.5 v 0.5 h 0.5 a 0.5,0.5 0 0 1 0.5,0.5 v 0.5 h 0.293 z m -9.7610001,5.1750003 -0.106,0.106 -1.5280002,3.821 3.8210002,-1.528 0.106,-0.106 a 0.5,0.5 0 0 1 -0.325,-0.468 v -0.5 h -0.5 a 0.5,0.5 0 0 1 -0.5,-0.5 v -0.5 h -0.5 a 0.5,0.5 0 0 1 -0.468,-0.325 z"
         id="path6989"
         style="fill:#000000;stroke:none;stroke-opacity:1" />
      <path
         style="fill:#cccccc;stroke:none;stroke-width:0.0364764;stroke-linecap:round;stroke-linejoin:round;stroke-miterlimit:4;stroke-dasharray:none;stroke-opacity:1;paint-order:stroke fill markers"
         d="m 1.6860961,14.890219 c 0.4120474,-1.046468 1.5166841,-3.780814 1.5377101,-3.806348 0.042415,-0.05151 0.058587,-0.04508 0.1210301,0.04813 0.1053857,0.157297 0.2503997,0.212647 0.588848,0.224756 l 0.3031292,0.01084 0.010141,0.319448 c 0.011368,0.358102 0.05176,0.454145 0.2473662,0.588176 0.088272,0.06048 0.1381191,0.06978 0.4225732,0.07881 l 0.3224958,0.01024 v 0.276086 c 0,0.236965 0.01,0.296042 0.070563,0.416932 0.03881,0.07747 0.1092484,0.166474 0.1565302,0.197797 0.095619,0.06334 0.10227,0.0794 0.050537,0.121999 -0.025533,0.02103 -2.7598798,1.125663 -3.8063482,1.53771 -0.026809,0.01056 -0.035132,0.0022 -0.024576,-0.02458 z"
         id="path7423" />
      <path
         style="fill:#cccccc;stroke:none;stroke-width:0.0364764;stroke-linecap:round;stroke-linejoin:round;stroke-miterlimit:4;stroke-dasharray:none;stroke-opacity:1;paint-order:stroke fill markers"
         d="m 6.2638619,12.037782 c -0.00119,-0.55326 -0.1538796,-0.704755 -0.7103336,-0.704755 h -0.285664 v -0.285664 c 0,-0.556454 -0.1514949,-0.709148 -0.7047548,-0.710334 l -0.2918682,-6.25e-4 v -0.14954 -0.149541 L 7.5103551,6.798303 10.749469,3.5592825 11.895455,4.7055301 13.04144,5.8517776 9.8024105,9.0907138 6.5633809,12.32965 H 6.413934 6.2644872 Z"
         id="path7462" />
      <path
         style="fill:#cccccc;stroke:none;stroke-width:0.0364764;stroke-linecap:round;stroke-linejoin:round;stroke-miterlimit:4;stroke-dasharray:none;stroke-opacity:1;paint-order:stroke fill markers"
         d="m 12.621359,3.9792161 -1.146064,-1.146327 0.640836,-0.6403616 0.640836,-0.6403616 1.145959,1.1459587 1.145958,1.1459586 -0.64073,0.6407299 -0.64073,0.64073 z"
         id="path7501" />
    </g>
  </g>
  <g
     inkscape:groupmode="layer"
     id="layer7"
     inkscape:label="add"
     style="display:none"
     sodipodi:insensitive="true">
    <path
       d="m 14.320992,5.8518235 a 1.963535,1.963535 0 1 1 -3.92707,0 1.963535,1.963535 0 0 1 3.92707,0 z m -1.840814,-0.859047 a 0.122721,0.122721 0 0 0 -0.245442,0 v 0.736326 h -0.736325 a 0.12272092,0.12272092 0 0 0 0,0.245441 h 0.736325 v 0.736326 a 0.122721,0.122721 0 0 0 0.245442,0 v -0.736326 h 0.736326 a 0.12272092,0.12272092 0 0 0 0,-0.245441 h -0.736326 z"
       id="path7821"
       style="stroke-width:0.245442" />
  </g>
  <g
     inkscape:groupmode="layer"
     id="layer8"
     inkscape:label="delete"
     style="display:inline">
    <path
       d="m 14.137243,3.7090946 a 0.30599281,0.30599281 0 0 1 0.305993,0.305993 v 3.671913 a 0.30599281,0.30599281 0 0 1 -0.305993,0.305993 H 10.46533 A 0.30599281,0.30599281 0 0 1 10.159337,7.6870006 V 4.0150876 A 0.30599281,0.30599281 0 0 1 10.46533,3.7090946 Z M 10.46533,3.4031016 a 0.61198562,0.61198562 0 0 0 -0.6119862,0.611986 v 3.671913 a 0.61198562,0.61198562 0 0 0 0.6119862,0.611986 h 3.671913 a 0.61198562,0.61198562 0 0 0 0.611986,-0.611986 v -3.671913 a 0.61198562,0.61198562 0 0 0 -0.611986,-0.611986 z"
       id="path7930"
       style="stroke-width:0.305993" />
    <path
       d="m 11.274987,4.8247446 a 0.15299641,0.15299641 0 0 1 0.216642,0 l 0.809657,0.809963 0.809657,-0.809963 a 0.15318973,0.15318973 0 0 1 0.216643,0.216643 l -0.809963,0.809657 0.809963,0.809657 a 0.15318967,0.15318967 0 0 1 -0.216643,0.216642 l -0.809657,-0.809962 -0.809657,0.809962 a 0.15318967,0.15318967 0 0 1 -0.216642,-0.216642 l 0.809963,-0.809657 -0.809963,-0.809657 a 0.15299641,0.15299641 0 0 1 0,-0.216643 z"
       id="path7932"
       style="stroke-width:0.305993" />
  </g>
</svg>
