<?xml version="1.0" encoding="UTF-8" standalone="no"?>
<!-- Created with Inkscape (http://www.inkscape.org/) -->

<svg
   width="15.986166"
   height="13.937605"
   viewBox="0 0 15.986166 13.937605"
   version="1.1"
   id="svg5"
   inkscape:version="1.1.2 (0a00cf5339, 2022-02-04)"
   sodipodi:docname="bootstrapgrid-draft.svg"
   xmlns:inkscape="http://www.inkscape.org/namespaces/inkscape"
   xmlns:sodipodi="http://sodipodi.sourceforge.net/DTD/sodipodi-0.dtd"
   xmlns="http://www.w3.org/2000/svg"
   xmlns:svg="http://www.w3.org/2000/svg">
  <sodipodi:namedview
     id="namedview7"
     pagecolor="#ffffff"
     bordercolor="#666666"
     borderopacity="1.0"
     inkscape:pageshadow="2"
     inkscape:pageopacity="0.0"
     inkscape:pagecheckerboard="0"
     inkscape:document-units="px"
     showgrid="false"
     inkscape:snap-page="false"
     inkscape:zoom="30.144088"
     inkscape:cx="0.59713202"
     inkscape:cy="6.9997142"
     inkscape:window-width="1766"
     inkscape:window-height="1061"
     inkscape:window-x="26"
     inkscape:window-y="23"
     inkscape:window-maximized="0"
     inkscape:current-layer="layer9"
     fit-margin-top="0"
     fit-margin-left="0"
     fit-margin-right="0"
     fit-margin-bottom="0" />
  <defs
     id="defs2">
    <inkscape:path-effect
       effect="fillet_chamfer"
       id="path-effect2374"
       is_visible="true"
       lpeversion="1"
       satellites_param="F,1,0,1,0,0.01,0,1 @ F,1,0,1,0,0.01,0,1 @ F,1,0,1,0,0.01,0,1 @ F,1,0,1,0,0.01,0,1"
       unit="px"
       method="auto"
       mode="F"
       radius="1"
       chamfer_steps="1"
       flexible="true"
       use_knot_distance="true"
       apply_no_radius="true"
       apply_with_radius="true"
       only_selected="false"
       hide_knots="false" />
    <linearGradient
       id="linearGradient1557"
       inkscape:swatch="solid">
      <stop
         style="stop-color:#000000;stop-opacity:1;"
         offset="0"
         id="stop1555" />
    </linearGradient>
    <linearGradient
       id="linearGradient1515"
       inkscape:swatch="solid">
      <stop
         style="stop-color:#000000;stop-opacity:1;"
         offset="0"
         id="stop1513" />
    </linearGradient>
  </defs>
  <g
     inkscape:groupmode="layer"
     id="layer2"
     inkscape:label="container"
     sodipodi:insensitive="true"
     transform="translate(-503.59813,-376.57405)">
    <path
       style="fill:#808080;stroke:#000000;stroke-width:0.968238;stroke-opacity:1"
       id="rect2292"
       width="15.017928"
       height="12.969367"
       x="504.08224"
       y="377.05817"
       inkscape:path-effect="#path-effect2374"
       d="m 504.23242,377.05817 h 14.73806 a 0.12969367,0.12969367 45 0 1 0.12969,0.12969 v 12.68949 a 0.15017928,0.15017928 135 0 1 -0.15018,0.15018 h -14.73805 a 0.12969367,0.12969367 45 0 1 -0.1297,-0.12969 v -12.68949 a 0.15017928,0.15017928 135 0 1 0.15018,-0.15018 z"
       sodipodi:type="rect" />
  </g>
  <g
     inkscape:groupmode="layer"
     id="layer3"
     inkscape:label="row"
     transform="translate(-503.59813,-376.57405)"
     sodipodi:insensitive="true">
    <rect
       style="fill:#f9f9f9;stroke:#000000;stroke-width:0.5;stroke-linejoin:round;stroke-miterlimit:4;stroke-dasharray:none;stroke-opacity:1;paint-order:markers stroke fill"
       id="rect3145"
       width="12.587636"
       height="9.7392254"
       x="505.22879"
       y="378.69324" />
    <rect
       style="fill:#b3b3b3;stroke:#000000;stroke-width:0.5;stroke-linejoin:round;stroke-miterlimit:4;stroke-dasharray:none;stroke-opacity:1;paint-order:markers stroke fill"
       id="rect3521"
       width="12.587636"
       height="9.7392254"
       x="505.22879"
       y="378.69324" />
  </g>
  <g
     inkscape:groupmode="layer"
     id="layer4"
     inkscape:label="column"
     sodipodi:insensitive="true"
     transform="translate(-503.59813,-376.57405)">
    <rect
       style="fill:#ffffff;stroke:#000000;stroke-width:0.48112;stroke-linejoin:round;stroke-miterlimit:4;stroke-dasharray:none;stroke-opacity:1;paint-order:markers stroke fill"
       id="rect3546"
       width="5.613049"
       height="5.7217393"
       x="505.98987"
       y="380.47073" />
    <rect
       style="fill:#ffffff;stroke:#000000;stroke-width:0.48112;stroke-linejoin:round;stroke-miterlimit:4;stroke-dasharray:none;stroke-opacity:1;paint-order:markers stroke fill"
       id="rect3546-3"
       width="5.613049"
       height="5.7217393"
       x="511.60291"
       y="380.47073" />
  </g>
  <g
     inkscape:groupmode="layer"
     id="layer9"
     inkscape:label="add"
     style="display:inline">
    <g
       id="g8870"
       transform="translate(-1.1511456,-1.1965586)">
      <path
         d="m 14.768958,10.814983 a 1.963535,1.963535 0 1 1 -3.92707,0 1.963535,1.963535 0 0 1 3.92707,0 z M 12.928144,9.9559364 a 0.122721,0.122721 0 0 0 -0.245442,0 v 0.7363256 h -0.736325 a 0.12272092,0.12272092 0 0 0 0,0.245441 h 0.736325 v 0.736326 a 0.122721,0.122721 0 0 0 0.245442,0 v -0.736326 h 0.736326 a 0.12272092,0.12272092 0 0 0 0,-0.245441 h -0.736326 z"
         id="path7821"
         style="display:inline;stroke-width:0.245442" />
      <path
         style="fill:#ffffff;stroke-width:0.0424959;stroke-linecap:round;stroke-linejoin:round;paint-order:stroke fill markers"
         d="m 12.729158,11.756054 c -0.01293,-0.01293 -0.02352,-0.207185 -0.02352,-0.431671 v -0.408154 l -0.422968,-0.0093 -0.422969,-0.0093 v -0.08294 -0.08294 l 0.422969,-0.0093 0.422968,-0.0093 V 10.299536 9.8858523 h 0.09952 0.09952 v 0.4136837 0.413684 l 0.422969,0.0093 0.422968,0.0093 v 0.08294 0.08294 l -0.421984,0.0093 -0.421985,0.0093 -0.0093,0.421985 c -0.0087,0.395984 -0.01345,0.422582 -0.07699,0.431677 -0.03724,0.0053 -0.07829,-8.89e-4 -0.09123,-0.01382 z"
         id="path8749" />
    </g>
  </g>
</svg>
